<svg xmlns="http://www.w3.org/2000/svg" width="331.734" height="80" viewBox="0 0 331.734 80">
  <g id="Group_1" data-name="Group 1" transform="translate(-93 -194)">
    <path id="Path_3" data-name="Path 3" d="M12.323-14.58V-2.34a7.193,7.193,0,0,1-1.094,4.078A7.7,7.7,0,0,1,8.058,4.375a18.934,18.934,0,0,1-5.026,1.5l-.388-1.8a16.383,16.383,0,0,0,3.822-1.08,6.25,6.25,0,0,0,2.6-1.973A5.218,5.218,0,0,0,10-2.188V-12.738H3.932V-14.58Zm-2.174-6.826a1.685,1.685,0,0,1,1.246.471,1.564,1.564,0,0,1,.471,1.149A1.62,1.62,0,0,1,11.4-18.6a1.671,1.671,0,0,1-1.246.478,1.59,1.59,0,0,1-1.2-.478,1.646,1.646,0,0,1-.457-1.184,1.588,1.588,0,0,1,.457-1.149A1.6,1.6,0,0,1,10.149-21.406ZM21.226-6.466A6.328,6.328,0,0,0,21.877-3.7a3.735,3.735,0,0,0,1.537,1.578,4.374,4.374,0,0,0,2.077.505,5.862,5.862,0,0,0,2.028-.332,8.576,8.576,0,0,0,1.862-.983L30.475-1.4a8.052,8.052,0,0,1-2.333,1.26,8.071,8.071,0,0,1-2.679.457,6.573,6.573,0,0,1-3.614-.955A6.081,6.081,0,0,1,19.572-3.3a9.448,9.448,0,0,1-.782-3.967,9.318,9.318,0,0,1,.789-3.932,6.484,6.484,0,0,1,2.215-2.7,5.781,5.781,0,0,1,3.365-.983,5.682,5.682,0,0,1,3.171.865,5.548,5.548,0,0,1,2.042,2.465,9.317,9.317,0,0,1,.713,3.815q0,.374-.014.7t-.042.575Zm3.96-6.508a3.573,3.573,0,0,0-2.707,1.149A5.565,5.565,0,0,0,21.24-8.266h7.6a5.573,5.573,0,0,0-1.025-3.524A3.245,3.245,0,0,0,25.186-12.974ZM40.971-1.606a4.847,4.847,0,0,0,2.652-.63A1.921,1.921,0,0,0,44.6-3.918a2.542,2.542,0,0,0-.242-1.149,2.162,2.162,0,0,0-.99-.872,11.213,11.213,0,0,0-2.3-.775,16.185,16.185,0,0,1-2.624-.865,4.382,4.382,0,0,1-1.731-1.281,3.234,3.234,0,0,1-.616-2.049,3.344,3.344,0,0,1,.7-2.125,4.4,4.4,0,0,1,1.945-1.371,8.058,8.058,0,0,1,2.894-.478,9.18,9.18,0,0,1,3.067.464,8.433,8.433,0,0,1,2.222,1.142L45.9-11.7a8.312,8.312,0,0,0-1.828-.935A7,7,0,0,0,41.663-13a4.211,4.211,0,0,0-2.437.533,1.642,1.642,0,0,0-.72,1.378,1.6,1.6,0,0,0,.353,1.059,3.009,3.009,0,0,0,1.2.762,21.907,21.907,0,0,0,2.326.741,13.023,13.023,0,0,1,2.485.9,4.277,4.277,0,0,1,1.655,1.385,3.806,3.806,0,0,1,.6,2.215,3.564,3.564,0,0,1-.886,2.513,5.093,5.093,0,0,1-2.292,1.4,9.964,9.964,0,0,1-2.97.436A8.831,8.831,0,0,1,37.6-.256a8.448,8.448,0,0,1-2.333-1.392L36.6-3.185a7.222,7.222,0,0,0,1.973,1.142A6.534,6.534,0,0,0,40.971-1.606ZM64.2-.734a5.941,5.941,0,0,1-1.814.775A8.3,8.3,0,0,1,60.3.318,5.006,5.006,0,0,1,56.672-.914,4.218,4.218,0,0,1,55.4-4.085v-8.7H52.048v-1.8H55.4v-3.309l2.326-.277v3.586h5.04l-.277,1.8H57.725v8.668a2.5,2.5,0,0,0,.644,1.855,2.971,2.971,0,0,0,2.139.637,5.582,5.582,0,0,0,1.509-.194,6.909,6.909,0,0,0,1.288-.5Z" transform="translate(179 259)" fill="#c9c9c9"/>
    <path id="Path_2" data-name="Path 2" d="M2.755-6.549V-8.571h11.1v2.022ZM29.838-3.185a2.2,2.2,0,0,0,.291,1.274,1.7,1.7,0,0,0,.9.6L30.462.318a3.78,3.78,0,0,1-1.648-.6,2.686,2.686,0,0,1-1.025-1.447A5.036,5.036,0,0,1,25.823-.2a6.379,6.379,0,0,1-2.6.519A4.719,4.719,0,0,1,19.772-.914a4.364,4.364,0,0,1-1.26-3.268,3.941,3.941,0,0,1,1.758-3.462,8.966,8.966,0,0,1,5.082-1.2H27.5v-1.218a2.56,2.56,0,0,0-.921-2.236,4.332,4.332,0,0,0-2.555-.658,9.781,9.781,0,0,0-1.689.173,13.461,13.461,0,0,0-2.1.575l-.609-1.758a14.562,14.562,0,0,1,2.52-.706,12.92,12.92,0,0,1,2.243-.208,5.824,5.824,0,0,1,4.092,1.267,4.467,4.467,0,0,1,1.364,3.441ZM23.815-1.454A4.184,4.184,0,0,0,25.878-2,4.586,4.586,0,0,0,27.5-3.517V-7.269h-2.1a5.351,5.351,0,0,0-3.4.831A2.761,2.761,0,0,0,21-4.209a2.787,2.787,0,0,0,.7,2.056A2.87,2.87,0,0,0,23.815-1.454ZM44.626-20.742a10.064,10.064,0,0,1,2.132.208,9.681,9.681,0,0,1,1.814.582l-.748,1.731a7.214,7.214,0,0,0-1.5-.457,8.6,8.6,0,0,0-1.634-.152,3.7,3.7,0,0,0-2.292.6,2.167,2.167,0,0,0-.768,1.828v2.963h4.943l-.249,1.828H41.635V0H39.309V-11.617H35.834v-1.828h3.475v-2.908a3.932,3.932,0,0,1,.7-2.34,4.522,4.522,0,0,1,1.9-1.516A6.638,6.638,0,0,1,44.626-20.742ZM64.2-.734a5.941,5.941,0,0,1-1.814.775A8.3,8.3,0,0,1,60.3.318,5.006,5.006,0,0,1,56.672-.914,4.218,4.218,0,0,1,55.4-4.085v-8.7H52.048v-1.8H55.4v-3.309l2.326-.277v3.586h5.04l-.277,1.8H57.725v8.668a2.5,2.5,0,0,0,.644,1.855,2.971,2.971,0,0,0,2.139.637,5.582,5.582,0,0,0,1.509-.194,6.909,6.909,0,0,0,1.288-.5Zm6.868-5.732A6.328,6.328,0,0,0,71.723-3.7,3.735,3.735,0,0,0,73.26-2.125a4.374,4.374,0,0,0,2.077.505,5.862,5.862,0,0,0,2.028-.332,8.576,8.576,0,0,0,1.862-.983L80.322-1.4a8.052,8.052,0,0,1-2.333,1.26,8.071,8.071,0,0,1-2.679.457A6.573,6.573,0,0,1,71.7-.637,6.081,6.081,0,0,1,69.418-3.3a9.448,9.448,0,0,1-.782-3.967,9.318,9.318,0,0,1,.789-3.932,6.484,6.484,0,0,1,2.215-2.7A5.781,5.781,0,0,1,75-14.885a5.682,5.682,0,0,1,3.171.865,5.548,5.548,0,0,1,2.042,2.465,9.317,9.317,0,0,1,.713,3.815q0,.374-.014.7t-.042.575Zm3.96-6.508a3.573,3.573,0,0,0-2.707,1.149,5.565,5.565,0,0,0-1.239,3.558h7.6a5.573,5.573,0,0,0-1.025-3.524A3.245,3.245,0,0,0,75.032-12.974ZM86,0V-1.786h2.271V-12.794H86V-14.58h4.043l.429,3.448a7.779,7.779,0,0,1,2.049-2.783A4.881,4.881,0,0,1,95.7-14.9a5.909,5.909,0,0,1,1.087.09q.478.09.976.228L97.089-12.5a8.5,8.5,0,0,0-.831-.187,5.268,5.268,0,0,0-.858-.062,3.953,3.953,0,0,0-2.88,1.191,8.355,8.355,0,0,0-1.925,3.6v6.175h2.963V0Zm9.526-9.651v-3.171l.235-1.758h2.008l-.332,4.929Zm6.923,3.1V-8.571h11.1v2.022Z" transform="translate(245 259)" fill="#707070"/>
    <path id="Path_1" data-name="Path 1" d="M14.358-.734a5.941,5.941,0,0,1-1.814.775,8.3,8.3,0,0,1-2.091.277A5.006,5.006,0,0,1,6.826-.914,4.218,4.218,0,0,1,5.552-4.085v-8.7H2.2v-1.8H5.552v-3.309l2.326-.277v3.586h5.04l-.277,1.8H7.878v8.668a2.5,2.5,0,0,0,.644,1.855,2.971,2.971,0,0,0,2.139.637,5.582,5.582,0,0,0,1.509-.194,6.909,6.909,0,0,0,1.288-.5Zm7.366-19.938v8.086a5.434,5.434,0,0,1,2.112-1.724,6.041,6.041,0,0,1,2.541-.575,3.91,3.91,0,0,1,3.115,1.135,4.668,4.668,0,0,1,.983,3.157V0H28.149V-10.537a2.605,2.605,0,0,0-.609-1.918,2.628,2.628,0,0,0-1.911-.6,3.484,3.484,0,0,0-1.578.374,5.706,5.706,0,0,0-1.343.928,6.452,6.452,0,0,0-.983,1.135V0H19.4V-20.423ZM43.394-14.58V-1.842h4.112V0H36.568V-1.842h4.5v-10.9H36.706V-14.58Zm-1.855-6.826a1.661,1.661,0,0,1,1.239.471,1.575,1.575,0,0,1,.464,1.149,1.633,1.633,0,0,1-.464,1.184,1.648,1.648,0,0,1-1.239.478,1.619,1.619,0,0,1-1.2-.478,1.62,1.62,0,0,1-.471-1.184,1.564,1.564,0,0,1,.471-1.149A1.631,1.631,0,0,1,41.538-21.406Zm16.048,19.8a4.847,4.847,0,0,0,2.652-.63,1.921,1.921,0,0,0,.976-1.682,2.542,2.542,0,0,0-.242-1.149,2.162,2.162,0,0,0-.99-.872,11.213,11.213,0,0,0-2.3-.775,16.185,16.185,0,0,1-2.624-.865,4.382,4.382,0,0,1-1.731-1.281,3.234,3.234,0,0,1-.616-2.049,3.344,3.344,0,0,1,.7-2.125,4.4,4.4,0,0,1,1.945-1.371,8.058,8.058,0,0,1,2.894-.478,9.18,9.18,0,0,1,3.067.464,8.433,8.433,0,0,1,2.222,1.142L62.515-11.7a8.312,8.312,0,0,0-1.828-.935A7,7,0,0,0,58.278-13a4.211,4.211,0,0,0-2.437.533,1.642,1.642,0,0,0-.72,1.378,1.6,1.6,0,0,0,.353,1.059,3.009,3.009,0,0,0,1.2.762A21.907,21.907,0,0,0,59-8.529a13.023,13.023,0,0,1,2.485.9,4.277,4.277,0,0,1,1.655,1.385,3.806,3.806,0,0,1,.6,2.215,3.564,3.564,0,0,1-.886,2.513,5.093,5.093,0,0,1-2.292,1.4,9.964,9.964,0,0,1-2.97.436,8.831,8.831,0,0,1-3.372-.575,8.448,8.448,0,0,1-2.333-1.392l1.329-1.537a7.222,7.222,0,0,0,1.973,1.142A6.534,6.534,0,0,0,57.586-1.606Z" transform="translate(361 259)" fill="#d54a7f"/>
    <path id="Subtraction_1" data-name="Subtraction 1" d="M40,80A40.011,40.011,0,0,1,24.43,3.143a40.01,40.01,0,0,1,31.14,73.713A39.749,39.749,0,0,1,40,80ZM35.008,45.035a4.07,4.07,0,0,0-2.786,1.126A3.948,3.948,0,0,0,31,49.042V65.959a3.948,3.948,0,0,0,1.221,2.88,4.07,4.07,0,0,0,2.786,1.126,3.994,3.994,0,0,0,2.041-.571L47,63.462v2.5a3.946,3.946,0,0,0,1.221,2.879,4.07,4.07,0,0,0,2.786,1.126,4,4,0,0,0,2.042-.57l14.188-8.458a4,4,0,0,0,0-6.871L53.049,45.606a3.993,3.993,0,0,0-2.041-.57,4.071,4.071,0,0,0-2.787,1.126A3.948,3.948,0,0,0,47,49.042v2.5l-9.951-5.933A3.992,3.992,0,0,0,35.008,45.035Z" transform="translate(93 194)" fill="#d54a7f"/>
  </g>
</svg>
